<svg xmlns="http://www.w3.org/2000/svg" xmlns:xlink="http://www.w3.org/1999/xlink" width="3000" zoomAndPan="magnify" viewBox="0 0 2250 1265.250001" height="1687" preserveAspectRatio="xMidYMid meet" version="1.0"><defs><clipPath id="51e6a32e6b"><path d="M 0.667969 0 L 2249.332031 0 L 2249.332031 1264.5 L 0.667969 1264.5 Z M 0.667969 0 " clip-rule="nonzero"/></clipPath><clipPath id="3ddfff91a7"><path d="M 641.851562 87.984375 L 1608.085938 87.984375 L 1608.085938 1176.339844 L 641.851562 1176.339844 Z M 641.851562 87.984375 " clip-rule="nonzero"/></clipPath><clipPath id="e61205a1c9"><path d="M 990 379.378906 L 1211 379.378906 L 1211 535 L 990 535 Z M 990 379.378906 " clip-rule="nonzero"/></clipPath><clipPath id="1e6cfb450d"><path d="M 1290 575 L 1422.964844 575 L 1422.964844 796 L 1290 796 Z M 1290 575 " clip-rule="nonzero"/></clipPath><clipPath id="519783d961"><path d="M 917.015625 730 L 1121 730 L 1121 885.328125 L 917.015625 885.328125 Z M 917.015625 730 " clip-rule="nonzero"/></clipPath></defs><g clip-path="url(#51e6a32e6b)"><path fill="#ffffff" d="M 0.667969 0 L 2249.332031 0 L 2249.332031 1264.5 L 0.667969 1264.5 Z M 0.667969 0 " fill-opacity="1" fill-rule="nonzero"/><path fill="#1f2833" d="M 0.667969 0 L 2249.332031 0 L 2249.332031 1264.5 L 0.667969 1264.5 Z M 0.667969 0 " fill-opacity="1" fill-rule="nonzero"/></g><g clip-path="url(#3ddfff91a7)"><path fill="#c5c6c7" d="M 1174.808594 1176.605469 L 1075.15625 1176.605469 C 1070.179688 1176.605469 1065.425781 1174.496094 1062.105469 1170.792969 C 1058.769531 1167.089844 1057.164062 1162.148438 1057.6875 1157.195312 C 1060.796875 1127.867188 1064.046875 1099.207031 1067.476562 1068.855469 C 1071.894531 1029.953125 1076.453125 989.71875 1080.738281 947.425781 C 1081.277344 942.089844 1081.441406 936.578125 1081.621094 930.753906 C 1081.714844 927.585938 1081.824219 924.324219 1081.976562 921.039062 C 1082.003906 920.46875 1082.074219 918.929688 1082.085938 916.941406 C 1082.085938 916.429688 1082.097656 915.894531 1082.097656 915.394531 C 1078.90625 915.511719 1073.144531 916.050781 1065.402344 917.527344 C 1065.082031 917.585938 1064.761719 917.644531 1064.425781 917.679688 L 873.53125 942.816406 C 867.351562 943.625 861.207031 941.101562 857.382812 936.183594 C 853.5625 931.253906 852.632812 924.671875 854.941406 918.882812 L 856.132812 915.917969 C 863.445312 893.53125 869.042969 875.875 872.398438 865.277344 C 873.148438 862.929688 873.78125 860.953125 874.269531 859.382812 C 875.972656 854.074219 876.839844 849.203125 877.28125 846.046875 C 877.363281 845.453125 877.449219 844.820312 877.519531 844.285156 C 876.949219 843.546875 875.601562 842.152344 872.554688 840.128906 L 872.316406 839.960938 C 839.441406 817.96875 810.566406 790.890625 782.628906 764.695312 C 762.804688 746.109375 742.300781 726.890625 720.953125 710.125 C 695.945312 690.492188 671.214844 669.25 647.414062 646.96875 C 643.207031 643.039062 641.207031 637.289062 642.03125 631.609375 C 642.863281 625.917969 646.4375 620.988281 651.578125 618.429688 C 666.511719 611 678.027344 605.78125 686.800781 602.496094 L 686.992188 602.425781 C 688.539062 601.851562 692.136719 600.496094 696.492188 597.972656 L 698.242188 596.972656 C 699.363281 596.316406 700.601562 595.613281 701.484375 595.066406 C 701.648438 593.207031 701.234375 589.648438 700.972656 587.386719 C 700.734375 585.3125 700.484375 584.410156 698.660156 578.265625 C 698.207031 576.765625 697.695312 575.027344 697.101562 572.976562 C 696.183594 569.8125 695.316406 566.667969 694.457031 563.605469 C 693.589844 560.402344 692.753906 557.390625 691.863281 554.378906 C 688.265625 542.125 678.347656 504.441406 661.546875 439.175781 C 660.023438 433.257812 661.6875 426.972656 665.929688 422.589844 C 670.179688 418.195312 676.394531 416.328125 682.359375 417.660156 L 743.597656 431.257812 C 773.058594 437.34375 790.429688 441.164062 798.265625 443.285156 C 802.148438 444.332031 803.8125 444.546875 808.765625 445.179688 C 811.363281 445.5 812.757812 445.582031 813.363281 445.59375 C 813.496094 445.546875 813.625 445.476562 813.746094 445.417969 C 814.066406 444.5 814.613281 442.890625 815.484375 440.082031 C 817.910156 432.234375 818.886719 428.425781 818.898438 428.390625 C 820.148438 423.363281 821.496094 418.316406 822.78125 413.433594 C 823.507812 410.671875 824.246094 407.933594 824.960938 405.179688 C 826.9375 397.609375 829.105469 389.820312 831.414062 382.046875 C 833.25 375.878906 838.320312 371.199219 844.621094 369.863281 C 850.929688 368.53125 857.445312 370.769531 861.625 375.675781 C 909.503906 431.996094 936.960938 464.539062 945.558594 475.148438 L 945.6875 475.328125 C 949.675781 480.246094 953.867188 485.1875 958.15625 490.019531 C 959.511719 491.558594 960.714844 493.03125 961.871094 494.460938 C 964.261719 497.414062 966.335938 499.976562 969.371094 502.390625 C 969.691406 502.652344 969.992188 502.878906 970.265625 503.09375 C 970.457031 502.285156 970.46875 501.535156 970.480469 500.84375 C 970.644531 491.054688 969.859375 485.792969 969.742188 485.066406 C 969.707031 484.914062 969.71875 484.949219 969.679688 484.722656 C 961.691406 438.402344 953.953125 396.179688 946.675781 359.21875 L 946.332031 357.46875 C 944.460938 347.992188 940.984375 330.367188 936.664062 306.496094 C 932.734375 284.824219 929.007812 262.996094 925.578125 241.601562 C 924.527344 235.003906 927.304688 228.382812 932.746094 224.511719 C 938.1875 220.644531 945.355469 220.203125 951.226562 223.359375 C 978.148438 237.824219 994.316406 246.707031 1000.6875 250.496094 L 1000.78125 250.554688 C 1003.722656 252.304688 1006.855469 253.996094 1010.082031 255.578125 C 1013.679688 257.339844 1014.988281 257.972656 1016.261719 258.414062 C 1019.785156 259.617188 1022.25 260.367188 1024.347656 259.746094 C 1025.527344 259.402344 1026.65625 258.652344 1027.753906 257.519531 C 1028.394531 256.839844 1028.917969 256.066406 1029.324219 255.199219 C 1029.421875 254.996094 1029.527344 254.792969 1029.632812 254.589844 C 1037.707031 239.085938 1045.886719 223.226562 1053.960938 207.472656 C 1072.535156 171.253906 1091.125 134.339844 1109.210938 97.75 C 1112.175781 91.769531 1118.273438 87.984375 1124.953125 87.984375 C 1131.632812 87.984375 1137.726562 91.769531 1140.691406 97.75 C 1158.78125 134.351562 1177.367188 171.253906 1195.941406 207.472656 C 1204.015625 223.238281 1212.207031 239.085938 1220.28125 254.601562 C 1220.375 254.792969 1220.484375 254.996094 1220.578125 255.210938 C 1220.984375 256.066406 1221.507812 256.851562 1222.152344 257.519531 C 1223.234375 258.664062 1224.378906 259.425781 1225.554688 259.769531 C 1227.652344 260.378906 1230.117188 259.628906 1233.640625 258.425781 C 1234.914062 257.984375 1236.226562 257.351562 1239.820312 255.589844 C 1243.046875 254.019531 1246.179688 252.328125 1249.132812 250.566406 L 1249.238281 250.507812 C 1255.597656 246.71875 1271.769531 237.835938 1298.691406 223.371094 C 1304.574219 220.214844 1311.726562 220.65625 1317.183594 224.535156 C 1322.613281 228.40625 1325.386719 235.027344 1324.339844 241.613281 C 1320.910156 263.007812 1317.195312 284.847656 1313.265625 306.507812 C 1308.929688 330.378906 1305.453125 348.003906 1303.597656 357.480469 L 1303.25 359.230469 C 1295.964844 396.191406 1288.222656 438.414062 1280.234375 484.734375 C 1280.199219 484.960938 1280.210938 484.925781 1280.175781 485.078125 C 1280.054688 485.804688 1279.28125 491.082031 1279.449219 500.867188 C 1279.460938 501.546875 1279.472656 502.296875 1279.664062 503.105469 C 1279.925781 502.902344 1280.234375 502.667969 1280.554688 502.402344 C 1283.578125 499.988281 1285.652344 497.4375 1288.046875 494.472656 C 1289.210938 493.046875 1290.414062 491.570312 1291.773438 490.03125 C 1296.058594 485.199219 1300.25 480.257812 1304.226562 475.339844 L 1304.371094 475.160156 C 1312.953125 464.550781 1340.414062 432.019531 1388.304688 375.6875 C 1392.472656 370.769531 1398.996094 368.554688 1405.296875 369.875 C 1411.605469 371.210938 1416.667969 375.878906 1418.5 382.058594 C 1420.824219 389.820312 1422.988281 397.609375 1424.953125 405.195312 C 1425.679688 407.945312 1426.40625 410.695312 1427.132812 413.445312 C 1428.417969 418.328125 1429.765625 423.386719 1431.027344 428.425781 C 1431.027344 428.4375 1432.003906 432.246094 1434.445312 440.09375 C 1435.3125 442.902344 1435.863281 444.511719 1436.195312 445.429688 C 1436.300781 445.5 1436.433594 445.570312 1436.5625 445.617188 C 1437.171875 445.605469 1438.550781 445.523438 1441.160156 445.203125 C 1446.113281 444.558594 1447.78125 444.34375 1451.664062 443.308594 C 1459.496094 441.1875 1476.871094 437.367188 1506.328125 431.28125 L 1567.566406 417.671875 C 1573.53125 416.351562 1579.75 418.21875 1584 422.601562 C 1588.238281 426.996094 1589.90625 433.269531 1588.382812 439.1875 C 1571.578125 504.464844 1561.660156 542.152344 1558.066406 554.402344 C 1557.171875 557.425781 1556.339844 560.441406 1555.46875 563.632812 C 1554.625 566.679688 1553.753906 569.835938 1552.824219 573.003906 C 1552.21875 575.050781 1551.707031 576.777344 1551.265625 578.277344 C 1549.445312 584.421875 1549.195312 585.339844 1548.957031 587.410156 C 1548.695312 589.671875 1548.277344 593.21875 1548.445312 595.089844 C 1549.324219 595.636719 1550.550781 596.339844 1551.683594 596.984375 L 1553.433594 597.996094 C 1557.792969 600.519531 1561.398438 601.878906 1562.933594 602.449219 L 1563.113281 602.519531 C 1571.902344 605.804688 1583.429688 611.023438 1598.347656 618.453125 C 1603.503906 621.011719 1607.0625 625.929688 1607.898438 631.621094 C 1608.730469 637.3125 1606.71875 643.050781 1602.527344 646.992188 C 1578.722656 669.261719 1553.980469 690.503906 1528.988281 710.148438 C 1507.625 726.914062 1487.132812 746.132812 1467.308594 764.71875 C 1439.375 790.917969 1410.488281 817.992188 1377.625 839.984375 L 1377.386719 840.152344 C 1374.335938 842.175781 1372.992188 843.558594 1372.40625 844.296875 C 1372.480469 844.84375 1372.574219 845.476562 1372.644531 846.070312 C 1373.085938 849.214844 1373.96875 854.085938 1375.660156 859.40625 C 1376.160156 860.980469 1376.789062 862.957031 1377.527344 865.3125 C 1380.886719 875.886719 1386.492188 893.558594 1393.804688 915.941406 L 1394.984375 918.90625 C 1397.292969 924.695312 1396.378906 931.277344 1392.554688 936.207031 C 1388.71875 941.125 1382.578125 943.652344 1376.398438 942.839844 L 1185.511719 917.703125 C 1185.179688 917.65625 1184.855469 917.609375 1184.523438 917.550781 C 1176.785156 916.085938 1171.03125 915.539062 1167.839844 915.417969 C 1167.839844 915.917969 1167.851562 916.453125 1167.851562 916.964844 C 1167.867188 918.953125 1167.925781 920.492188 1167.960938 921.0625 C 1168.117188 924.347656 1168.222656 927.625 1168.316406 930.777344 C 1168.496094 936.613281 1168.664062 942.113281 1169.199219 947.449219 C 1173.472656 989.742188 1178.035156 1029.976562 1182.453125 1068.890625 C 1185.894531 1099.230469 1189.15625 1127.890625 1192.25 1157.230469 C 1192.761719 1162.183594 1191.15625 1167.113281 1187.832031 1170.816406 C 1184.523438 1174.496094 1179.785156 1176.605469 1174.808594 1176.605469 Z M 1094.695312 1141.488281 L 1155.253906 1141.488281 C 1152.800781 1118.902344 1150.242188 1096.371094 1147.574219 1072.820312 C 1143.144531 1033.8125 1138.574219 993.480469 1134.273438 950.960938 C 1133.609375 944.402344 1133.417969 938.007812 1133.226562 931.828125 C 1133.144531 928.695312 1133.046875 925.742188 1132.90625 922.789062 C 1132.847656 921.800781 1132.773438 919.753906 1132.75 917.167969 C 1132.714844 913.273438 1132.703125 911.121094 1133.097656 908.667969 C 1134.085938 902.390625 1137.027344 896.246094 1141.382812 891.355469 C 1143.871094 888.554688 1146.886719 886.113281 1150.074219 884.316406 C 1150.753906 883.9375 1153.21875 882.601562 1156.28125 881.601562 C 1162.886719 879.457031 1174.4375 879.898438 1190.585938 882.921875 L 1353.140625 904.320312 C 1349.296875 892.367188 1346.222656 882.683594 1344.070312 875.910156 C 1343.332031 873.578125 1342.710938 871.613281 1342.210938 870.050781 C 1339.757812 862.371094 1338.507812 855.371094 1337.890625 850.871094 C 1337.386719 847.308594 1337.03125 844.75 1337.222656 841.617188 C 1337.9375 829.914062 1344.890625 819.578125 1357.917969 810.910156 L 1358.09375 810.777344 C 1388.578125 790.378906 1415.15625 765.46875 1443.292969 739.085938 C 1463.664062 719.984375 1484.730469 700.21875 1507.292969 682.511719 C 1524.855469 668.722656 1542.289062 654.101562 1559.351562 638.871094 C 1556.148438 637.480469 1553.289062 636.3125 1550.789062 635.371094 L 1550.625 635.324219 C 1548.46875 634.503906 1542.71875 632.359375 1535.824219 628.359375 L 1534.15625 627.382812 C 1528.855469 624.347656 1524.296875 621.714844 1520.523438 616.832031 C 1511.53125 605.234375 1513.117188 591.53125 1514.078125 583.335938 C 1514.6875 578.109375 1515.605469 575.027344 1517.605469 568.261719 C 1518.035156 566.796875 1518.546875 565.121094 1519.128906 563.117188 C 1519.972656 560.226562 1520.773438 557.332031 1521.617188 554.273438 C 1522.488281 551.082031 1523.402344 547.769531 1524.378906 544.472656 C 1527.285156 534.578125 1534.964844 505.582031 1547.230469 458.144531 L 1513.816406 465.574219 C 1513.734375 465.597656 1513.652344 465.609375 1513.566406 465.632812 C 1485.132812 471.503906 1467.878906 475.292969 1460.832031 477.195312 C 1454.628906 478.863281 1451.042969 479.328125 1445.625 480.019531 C 1438.277344 480.960938 1433.753906 480.960938 1429.445312 480.019531 C 1418.417969 477.625 1411.59375 470.875 1409.164062 468.085938 C 1405.046875 463.347656 1403.425781 458.550781 1400.925781 450.5 C 1398.199219 441.738281 1397.117188 437.449219 1396.996094 436.984375 C 1395.890625 432.605469 1394.710938 428.125 1393.554688 423.757812 C 1359.394531 464.015625 1338.613281 488.6875 1331.671875 497.261719 L 1331.542969 497.414062 C 1327.230469 502.75 1322.695312 508.097656 1318.050781 513.335938 C 1317.207031 514.289062 1316.300781 515.40625 1315.324219 516.597656 C 1312.277344 520.359375 1308.476562 525.039062 1302.511719 529.816406 C 1296.203125 534.863281 1290.890625 537.578125 1285.292969 538.613281 C 1282.484375 539.136719 1267.707031 541.234375 1255.941406 530.242188 C 1250.335938 524.992188 1248.109375 519.085938 1247.046875 516.253906 C 1244.488281 509.453125 1244.394531 503.640625 1244.34375 501.453125 C 1244.121094 488.078125 1245.320312 480.566406 1245.679688 478.613281 C 1253.703125 432.078125 1261.480469 389.628906 1268.804688 352.433594 L 1269.148438 350.683594 C 1271.003906 341.300781 1274.433594 323.832031 1278.722656 300.230469 C 1280.460938 290.621094 1282.164062 280.976562 1283.816406 271.367188 C 1275.710938 275.808594 1270.148438 278.917969 1267.21875 280.667969 L 1267.125 280.726562 C 1263.363281 282.976562 1259.371094 285.132812 1255.289062 287.132812 C 1251.039062 289.21875 1248.464844 290.46875 1245.035156 291.644531 C 1239.726562 293.46875 1228.652344 297.253906 1215.695312 293.445312 C 1210.753906 291.992188 1203.445312 288.777344 1196.714844 281.691406 C 1193.597656 278.40625 1191 274.65625 1189.023438 270.546875 C 1180.964844 255.054688 1172.78125 239.230469 1164.722656 223.488281 C 1151.421875 197.566406 1138.109375 171.265625 1124.976562 144.984375 C 1111.84375 171.265625 1098.542969 197.566406 1085.242188 223.488281 C 1077.167969 239.230469 1069 255.054688 1060.9375 270.546875 C 1058.960938 274.65625 1056.367188 278.40625 1053.246094 281.691406 C 1046.519531 288.777344 1039.207031 291.992188 1034.265625 293.445312 C 1021.3125 297.253906 1010.238281 293.46875 1004.914062 291.644531 C 1001.484375 290.46875 998.925781 289.21875 994.664062 287.132812 C 990.589844 285.132812 986.601562 282.976562 982.828125 280.726562 L 982.742188 280.679688 C 979.800781 278.929688 974.253906 275.808594 966.132812 271.367188 C 967.789062 280.988281 969.492188 290.621094 971.242188 300.230469 C 975.515625 323.84375 978.957031 341.300781 980.804688 350.683594 L 981.148438 352.433594 C 988.472656 389.617188 996.257812 432.066406 1004.285156 478.601562 C 1004.652344 480.554688 1005.832031 488.066406 1005.605469 501.441406 C 1005.570312 503.628906 1005.460938 509.441406 1002.914062 516.242188 C 1001.84375 519.074219 999.628906 524.96875 994.019531 530.21875 C 982.265625 541.222656 967.480469 539.125 964.632812 538.589844 C 959.070312 537.566406 953.761719 534.851562 947.449219 529.789062 C 941.472656 525.015625 937.675781 520.335938 934.625 516.574219 C 933.660156 515.394531 932.757812 514.265625 931.910156 513.3125 C 927.257812 508.070312 922.71875 502.726562 918.410156 497.402344 L 918.277344 497.238281 C 911.335938 488.652344 890.570312 463.980469 856.40625 423.734375 C 855.253906 428.089844 854.074219 432.582031 852.964844 436.960938 C 852.847656 437.414062 851.753906 441.714844 849.039062 450.464844 C 846.535156 458.527344 844.917969 463.3125 840.808594 468.050781 C 838.378906 470.851562 831.546875 477.601562 820.53125 479.996094 C 816.222656 480.933594 811.683594 480.933594 804.347656 479.996094 C 798.933594 479.292969 795.359375 478.839844 789.15625 477.160156 C 782.09375 475.265625 764.839844 471.480469 736.417969 465.609375 C 736.324219 465.585938 736.238281 465.5625 736.15625 465.550781 L 702.757812 458.121094 C 715.019531 505.558594 722.691406 534.554688 725.59375 544.4375 C 726.570312 547.734375 727.476562 551.046875 728.371094 554.238281 C 729.214844 557.308594 730.011719 560.191406 730.859375 563.082031 C 731.441406 565.082031 731.929688 566.773438 732.371094 568.238281 C 734.382812 575.003906 735.300781 578.074219 735.894531 583.300781 C 736.847656 591.492188 738.441406 605.210938 729.441406 616.808594 C 725.667969 621.679688 721.105469 624.308594 715.820312 627.359375 L 714.152344 628.324219 C 707.257812 632.324219 701.507812 634.480469 699.339844 635.289062 L 699.183594 635.335938 C 696.683594 636.277344 693.816406 637.445312 690.625 638.835938 C 707.675781 654.066406 725.117188 668.675781 742.671875 682.476562 C 765.234375 700.195312 786.308594 719.949219 806.683594 739.046875 C 834.820312 765.433594 861.398438 790.355469 891.878906 810.742188 L 892.058594 810.871094 C 905.074219 819.542969 912.039062 829.890625 912.753906 841.59375 C 912.945312 844.714844 912.585938 847.285156 912.097656 850.832031 C 911.46875 855.347656 910.203125 862.335938 907.765625 870.015625 C 907.265625 871.574219 906.644531 873.539062 905.90625 875.875 C 903.75 882.648438 900.679688 892.332031 896.832031 904.296875 L 1059.390625 882.886719 C 1075.535156 879.863281 1087.074219 879.421875 1093.695312 881.566406 C 1096.753906 882.566406 1099.21875 883.898438 1099.910156 884.28125 C 1103.101562 886.078125 1106.101562 888.519531 1108.589844 891.316406 C 1112.9375 896.210938 1115.878906 902.355469 1116.878906 908.632812 C 1117.273438 911.085938 1117.246094 913.238281 1117.222656 917.144531 C 1117.199219 919.71875 1117.117188 921.765625 1117.070312 922.753906 C 1116.925781 925.707031 1116.832031 928.660156 1116.734375 931.789062 C 1116.546875 937.96875 1116.355469 944.363281 1115.6875 950.925781 C 1111.390625 993.433594 1106.816406 1033.777344 1102.386719 1072.785156 C 1099.707031 1096.359375 1097.148438 1118.902344 1094.695312 1141.488281 " fill-opacity="1" fill-rule="evenodd"/></g><g clip-path="url(#e61205a1c9)"><path fill="#45a29e" d="M 1120.941406 379.378906 C 1048.746094 379.378906 990.429688 412.007812 990.429688 460.949219 C 990.429688 501.734375 1017.765625 496.351562 1023.058594 534.363281 C 1047.53125 493.578125 1088.316406 534.363281 1137.257812 469.105469 C 1164.941406 432.191406 1163.8125 427.277344 1210.671875 412.007812 C 1210.671875 412.007812 1194.355469 379.378906 1120.941406 379.378906 Z M 1120.941406 379.378906 " fill-opacity="1" fill-rule="nonzero"/></g><path fill="#c5c6c7" d="M 1020.519531 589.246094 C 1004.824219 550.171875 1014.296875 503.460938 1038.875 470.628906 C 1062.554688 438.792969 1099.242188 419.515625 1137.257812 412.007812 C 1118.996094 417.691406 1101.707031 426.085938 1086.496094 437.0625 C 1042.601562 466.914062 1018.34375 528.222656 1041.910156 577.363281 C 1051.300781 592.144531 1028.167969 605.0625 1020.519531 589.246094 Z M 1020.519531 589.246094 " fill-opacity="1" fill-rule="nonzero"/><g clip-path="url(#1e6cfb450d)"><path fill="#45a29e" d="M 1365.65625 575.148438 C 1341.183594 575.148438 1333.027344 583.304688 1308.554688 575.148438 C 1324.871094 624.089844 1267.769531 624.089844 1300.398438 689.347656 C 1320.328125 729.203125 1333.027344 762.761719 1333.027344 795.390625 C 1333.027344 795.390625 1422.753906 754.601562 1422.753906 664.875 C 1422.753906 626.695312 1407.25 575.148438 1365.65625 575.148438 Z M 1365.65625 575.148438 " fill-opacity="1" fill-rule="nonzero"/></g><path fill="#c5c6c7" d="M 1254.140625 538.738281 C 1340.519531 561.023438 1392.464844 645.109375 1357.496094 730.132812 C 1362.855469 711.050781 1364.691406 691.058594 1362.179688 671.804688 C 1356.03125 613.410156 1304.660156 570.828125 1248.769531 562.613281 C 1232.179688 559.246094 1237.613281 534.6875 1254.140625 538.738281 Z M 1254.140625 538.738281 " fill-opacity="1" fill-rule="nonzero"/><g clip-path="url(#519783d961)"><path fill="#45a29e" d="M 1031.214844 762.761719 C 990.429688 754.601562 961.0625 763.902344 925.171875 730.132812 C 925.171875 730.132812 917.015625 747.75 917.015625 770.917969 C 917.015625 852.488281 990.429688 885.117188 1039.371094 885.117188 C 1104.628906 885.117188 1096.472656 860.644531 1120.941406 836.175781 C 1080.15625 811.703125 1117.363281 779.992188 1031.214844 762.761719 Z M 1031.214844 762.761719 " fill-opacity="1" fill-rule="nonzero"/></g><path fill="#c5c6c7" d="M 1186.546875 812.34375 C 1122.011719 871.667969 1022.269531 858.820312 965.957031 795.386719 C 980.433594 808.78125 997.46875 818.917969 1015.414062 826.121094 C 1067.667969 848.871094 1131.609375 837.832031 1169.539062 794.746094 C 1181.332031 782.550781 1199.179688 800.890625 1186.546875 812.34375 Z M 1186.546875 812.34375 " fill-opacity="1" fill-rule="nonzero"/><path fill="#66fcf1" d="M 1249.066406 610.164062 L 1240.910156 602.007812 C 1239.378906 600.480469 1237.304688 599.617188 1235.140625 599.617188 L 1187.871094 599.617188 L 1210.53125 478.765625 C 1211.25 474.9375 1209.160156 471.136719 1205.546875 469.691406 C 1201.917969 468.230469 1197.792969 469.550781 1195.675781 472.816406 L 1089.632812 635.960938 C 1087.535156 639.191406 1087.980469 643.445312 1090.703125 646.171875 L 1098.863281 654.328125 C 1100.390625 655.859375 1102.464844 656.71875 1104.628906 656.71875 L 1152.007812 656.71875 L 1129.222656 785.8125 C 1128.542969 789.664062 1130.695312 793.457031 1134.351562 794.851562 C 1135.300781 795.21875 1136.285156 795.390625 1137.253906 795.390625 C 1140.011719 795.390625 1142.671875 793.988281 1144.191406 791.527344 L 1250.234375 620.226562 C 1252.230469 617.007812 1251.742188 612.84375 1249.066406 610.164062 Z M 1249.066406 610.164062 " fill-opacity="1" fill-rule="nonzero"/></svg>